<svg id="a5075b6c-4ccc-44d7-be7d-304bc2ae9ced" data-name="7ac68787-ad52-49a3-adf0-5c7be50ea3c2" xmlns="http://www.w3.org/2000/svg" xmlns:xlink="http://www.w3.org/1999/xlink" viewBox="0 0 200.08 51.11"><defs><linearGradient id="0e58f9c4-a6f7-414e-9234-8a4d917de366" x1="-11.91" y1="12.63" x2="177.76" y2="39.46" gradientUnits="userSpaceOnUse"><stop offset="0" stop-color="#56ccf2"/><stop offset="1" stop-color="#11998e"/></linearGradient><linearGradient id="8e9f574d-ad19-4910-8722-e76c672293e1" x1="-11.96" y1="12.99" x2="177.71" y2="39.82" xlink:href="#0e58f9c4-a6f7-414e-9234-8a4d917de366"/><linearGradient id="a81ffdb3-434a-48ac-93ec-d3949d5594e3" x1="-11.56" y1="10.16" x2="178.11" y2="37" xlink:href="#0e58f9c4-a6f7-414e-9234-8a4d917de366"/><linearGradient id="66bbd667-5ae1-4eaf-a2d1-d12185a4d450" x1="-11.13" y1="7.13" x2="178.53" y2="33.97" xlink:href="#0e58f9c4-a6f7-414e-9234-8a4d917de366"/><linearGradient id="7bdbfb98-1bcb-4017-84c4-dea3e6b4d953" x1="-10.67" y1="3.89" x2="178.99" y2="30.72" xlink:href="#0e58f9c4-a6f7-414e-9234-8a4d917de366"/><linearGradient id="62c03647-9983-41a2-978d-52d74142d51a" x1="-10.23" y1="0.74" x2="179.44" y2="27.57" xlink:href="#0e58f9c4-a6f7-414e-9234-8a4d917de366"/><linearGradient id="1d039dc0-5b66-4efd-9ac8-9f5be3213540" x1="-9.91" y1="-1.54" x2="179.76" y2="25.3" xlink:href="#0e58f9c4-a6f7-414e-9234-8a4d917de366"/><linearGradient id="5de93b7a-c9b3-4dca-abc1-2740254320b6" x1="-9" y1="-7.91" x2="180.66" y2="18.93" xlink:href="#0e58f9c4-a6f7-414e-9234-8a4d917de366"/><linearGradient id="b6826287-6c03-47f9-93a3-a5d2fdaa0fcf" x1="-9.05" y1="-7.55" x2="180.61" y2="19.28" xlink:href="#0e58f9c4-a6f7-414e-9234-8a4d917de366"/></defs><title>logoZonnevelt-0234</title><polygon points="18.87 4.61 18.87 1.95 0.21 1.95 0.21 4.87 14.64 4.87 0 26.6 0 29.35 19.49 29.35 19.49 26.45 4.18 26.45 18.87 4.61" fill="url(#0e58f9c4-a6f7-414e-9234-8a4d917de366)"/><path d="M31.74,8.61a8.2,8.2,0,0,0-6.64,2.93A11.21,11.21,0,0,0,22.65,19v.41a11.13,11.13,0,0,0,2.46,7.44,8.27,8.27,0,0,0,6.67,2.91,8.26,8.26,0,0,0,6.66-2.9,11.15,11.15,0,0,0,2.45-7.45V19a11.17,11.17,0,0,0-2.46-7.45A8.28,8.28,0,0,0,31.74,8.61Zm5.44,10.78a9.6,9.6,0,0,1-1.37,5.34,4.5,4.5,0,0,1-4,2.11,4.52,4.52,0,0,1-4-2.11,9.66,9.66,0,0,1-1.36-5.34V19a9.68,9.68,0,0,1,1.36-5.32,4.47,4.47,0,0,1,4-2.13,4.53,4.53,0,0,1,4,2.13A9.58,9.58,0,0,1,37.19,19Z" fill="url(#8e9f574d-ad19-4910-8722-e76c672293e1)"/><path d="M55,8.61a6.8,6.8,0,0,0-3.49.89A7.39,7.39,0,0,0,49,12.06l-.26-3H45.42V29.35h3.71V14.24A5,5,0,0,1,51,12.31a5.75,5.75,0,0,1,2.91-.69,4.26,4.26,0,0,1,3.25,1.13,5.51,5.51,0,0,1,1.06,3.82V29.35H62V16.5q0-4-1.81-6A6.64,6.64,0,0,0,55,8.61Z" fill="url(#a81ffdb3-434a-48ac-93ec-d3949d5594e3)"/><path d="M76.93,8.61a6.8,6.8,0,0,0-3.49.89,7.39,7.39,0,0,0-2.54,2.56l-.26-3H67.32V29.35H71V14.24a5,5,0,0,1,1.89-1.93,5.75,5.75,0,0,1,2.91-.69A4.26,4.26,0,0,1,79,12.75a5.51,5.51,0,0,1,1.06,3.82V29.35H83.8V16.5q0-4-1.81-6A6.64,6.64,0,0,0,76.93,8.61Z" fill="url(#66bbd667-5ae1-4eaf-a2d1-d12185a4d450)"/><path d="M97,8.61a7.94,7.94,0,0,0-6.18,2.87,10.56,10.56,0,0,0-2.53,7.25v.83a10.79,10.79,0,0,0,2.46,7.38,8.61,8.61,0,0,0,6.84,2.8,11.47,11.47,0,0,0,4.31-.68,8.91,8.91,0,0,0,2.88-1.78l-1.45-2.41a7.37,7.37,0,0,1-2.44,1.48,9.32,9.32,0,0,1-3.3.54A4.73,4.73,0,0,1,93.48,25a8.41,8.41,0,0,1-1.35-5l.06-.09h13v-2a10.46,10.46,0,0,0-2-6.75A7.39,7.39,0,0,0,97,8.61Zm4.46,8.34H92.34v-.09a7.08,7.08,0,0,1,1.52-3.8A4,4,0,0,1,97,11.53,3.94,3.94,0,0,1,100.4,13a5.93,5.93,0,0,1,1.09,3.67Z" fill="url(#7bdbfb98-1bcb-4017-84c4-dea3e6b4d953)"/><polygon points="116.73 23.35 116.37 24.77 116.26 24.77 115.94 23.35 111.12 8.99 107.32 8.99 114.9 29.35 117.71 29.35 125.2 8.99 121.41 8.99 116.73 23.35" fill="url(#62c03647-9983-41a2-978d-52d74142d51a)"/><path d="M136.13,8.61A7.94,7.94,0,0,0,130,11.48a10.56,10.56,0,0,0-2.53,7.25v.83a10.79,10.79,0,0,0,2.46,7.38,8.61,8.61,0,0,0,6.84,2.8,11.47,11.47,0,0,0,4.31-.68,8.91,8.91,0,0,0,2.88-1.78l-1.45-2.41A7.37,7.37,0,0,1,140,26.31a9.32,9.32,0,0,1-3.3.54,4.73,4.73,0,0,1-4.14-1.91,8.41,8.41,0,0,1-1.35-5l.06-.09h13v-2a10.46,10.46,0,0,0-2-6.75A7.39,7.39,0,0,0,136.13,8.61Zm4.46,8.34h-9.18v-.09a7.08,7.08,0,0,1,1.51-3.8,4,4,0,0,1,3.21-1.5A3.94,3.94,0,0,1,139.5,13a5.93,5.93,0,0,1,1.09,3.67Z" fill="url(#1d039dc0-5b66-4efd-9ac8-9f5be3213540)"/><rect x="148.75" width="3.71" height="29.35" fill="url(#5de93b7a-c9b3-4dca-abc1-2740254320b6)"/><path d="M166.85,26.43a5.3,5.3,0,0,1-.66.18,3.44,3.44,0,0,1-.71.08,2.14,2.14,0,0,1-1.57-.58,2.77,2.77,0,0,1-.59-2V11.74h3.86V9h-3.86V4.06h-3.71V9h-3.24v2.75h3.24V24.06a5.92,5.92,0,0,0,1.34,4.28,4.8,4.8,0,0,0,3.59,1.36,6.17,6.17,0,0,0,1.6-.22,3.28,3.28,0,0,0,1.22-.56Z" fill="url(#b6826287-6c03-47f9-93a3-a5d2fdaa0fcf)"/><path d="M83.54,39.06a5,5,0,0,1,1.72-1.52A4.73,4.73,0,0,1,87.52,37a4.38,4.38,0,0,1,3.38,1.3,5.74,5.74,0,0,1,1.21,4v8.5H89.64V42.27a3.63,3.63,0,0,0-.72-2.48,2.74,2.74,0,0,0-2.15-.8,4,4,0,0,0-1.92.43,3.49,3.49,0,0,0-1.32,1.21V50.8H81V31.23H83.5Z" fill="#999"/><path d="M104.28,48.79a4.6,4.6,0,0,1-1.64,1.68,4.5,4.5,0,0,1-2.32.59,4.36,4.36,0,0,1-3.46-1.42,6.58,6.58,0,0,1-1.24-4.42v-8h2.47v8a5,5,0,0,0,.64,3,2.38,2.38,0,0,0,2,.82,4.06,4.06,0,0,0,2.18-.53,3.34,3.34,0,0,0,1.3-1.51V37.22h2.47V50.8h-2.22Z" fill="#999"/><path d="M112.94,33.75h-2.47V31.23h2.47Zm0,17h-2.47V37.22h2.47Z" fill="#999"/><path d="M124.63,47.15a1.65,1.65,0,0,0-.62-1.33,6,6,0,0,0-2.35-.9A9.87,9.87,0,0,1,118,43.48,2.91,2.91,0,0,1,116.69,41a3.58,3.58,0,0,1,1.41-2.83,6.23,6.23,0,0,1,7.39.08,3.59,3.59,0,0,1,1.37,2.92v.08H124.5a2.14,2.14,0,0,0-.77-1.59,2.76,2.76,0,0,0-2-.71,2.81,2.81,0,0,0-2,.59,1.84,1.84,0,0,0-.65,1.4,1.49,1.49,0,0,0,.56,1.24,6.18,6.18,0,0,0,2.3.8,9.73,9.73,0,0,1,3.79,1.49A3,3,0,0,1,127,47a3.57,3.57,0,0,1-1.46,3,6.9,6.9,0,0,1-7.83-.2,3.76,3.76,0,0,1-1.42-3.07v-.08h2.36a2.29,2.29,0,0,0,1,1.93,3.79,3.79,0,0,0,2.14.61,3.38,3.38,0,0,0,2.06-.56A1.71,1.71,0,0,0,124.63,47.15Z" fill="#999"/><path d="M138.51,50.8q-.13-.61-.19-1.08a8,8,0,0,1-.08-1,5.76,5.76,0,0,1-1.8,1.64,4.6,4.6,0,0,1-2.41.7A4.44,4.44,0,0,1,130.8,50a4,4,0,0,1-1.11-3,3.51,3.51,0,0,1,1.57-3,7.35,7.35,0,0,1,4.27-1.1h2.68V41.5a2.49,2.49,0,0,0-.73-1.89,2.86,2.86,0,0,0-2.06-.7,3,3,0,0,0-1.94.6,1.81,1.81,0,0,0-.74,1.44h-2.35v-.08a3.25,3.25,0,0,1,1.39-2.71,5.74,5.74,0,0,1,3.81-1.23,5.6,5.6,0,0,1,3.71,1.13,4.15,4.15,0,0,1,1.4,3.38v6.62a12.72,12.72,0,0,0,.08,1.4,7.22,7.22,0,0,0,.28,1.33ZM134.41,49a4.4,4.4,0,0,0,2.42-.69,3.28,3.28,0,0,0,1.4-1.58V44.51h-2.77a3.6,3.6,0,0,0-2.39.75,2.25,2.25,0,0,0-.9,1.77,1.86,1.86,0,0,0,.56,1.43,2.36,2.36,0,0,0,1.68.53Z" fill="#999"/><path d="M150.72,39.41l-1.27-.08a2.83,2.83,0,0,0-1.65.46,3,3,0,0,0-1,1.3v9.7h-2.47V37.22h2.21l.24,2a4.71,4.71,0,0,1,1.42-1.64,3.33,3.33,0,0,1,2-.59,3.05,3.05,0,0,1,.53,0l.41.09Z" fill="#999"/><path d="M156.94,33.95v3.27h2.57v1.84h-2.57V47.3a1.85,1.85,0,0,0,.4,1.34,1.43,1.43,0,0,0,1,.39,2.3,2.3,0,0,0,.48-.06,3.54,3.54,0,0,0,.44-.12l.34,1.69a2.18,2.18,0,0,1-.82.37,4.11,4.11,0,0,1-1.07.14,3.2,3.2,0,0,1-2.4-.91,4,4,0,0,1-.89-2.85V39.06h-2.16V37.22h2.16V33.95Z" fill="#999"/><path d="M170,47.15a1.65,1.65,0,0,0-.62-1.33,6,6,0,0,0-2.35-.9,9.87,9.87,0,0,1-3.68-1.44A2.91,2.91,0,0,1,162.09,41a3.58,3.58,0,0,1,1.41-2.83,6.23,6.23,0,0,1,7.39.08,3.59,3.59,0,0,1,1.37,2.92v.08H169.9a2.14,2.14,0,0,0-.77-1.59,2.76,2.76,0,0,0-2-.71,2.81,2.81,0,0,0-2,.59,1.84,1.84,0,0,0-.65,1.4,1.49,1.49,0,0,0,.56,1.24,6.18,6.18,0,0,0,2.3.8,9.73,9.73,0,0,1,3.79,1.49A3,3,0,0,1,172.42,47,3.57,3.57,0,0,1,171,49.92a6.94,6.94,0,0,1-7.88-.18,3.76,3.76,0,0,1-1.42-3.07v-.08h2.36a2.29,2.29,0,0,0,1,1.93,3.79,3.79,0,0,0,2.14.61,3.38,3.38,0,0,0,2.06-.56A1.71,1.71,0,0,0,170,47.15Z" fill="#999"/><path d="M181.21,51.06a5.74,5.74,0,0,1-4.56-1.87A7.19,7.19,0,0,1,175,44.27v-.55a7,7,0,0,1,1.69-4.84A5.29,5.29,0,0,1,180.84,37a4.92,4.92,0,0,1,4.08,1.69,7,7,0,0,1,1.36,4.5v1.3H177.6v.06a5.61,5.61,0,0,0,.9,3.32,3.16,3.16,0,0,0,2.76,1.22,6.22,6.22,0,0,0,2.2-.36,4.91,4.91,0,0,0,1.62-1l1,1.61a5.94,5.94,0,0,1-1.92,1.19A7.65,7.65,0,0,1,181.21,51.06Zm-.39-12.14a2.69,2.69,0,0,0-2.14,1,4.72,4.72,0,0,0-1,2.55v.06h6.12v-.2a4,4,0,0,0-.73-2.45A2.63,2.63,0,0,0,180.82,38.92Z" fill="#999"/><path d="M191.25,37.22l.18,2a4.93,4.93,0,0,1,1.7-1.67,4.53,4.53,0,0,1,2.33-.6,4.43,4.43,0,0,1,3.4,1.29,5.64,5.64,0,0,1,1.2,4v8.57h-2.47V42.28a3.67,3.67,0,0,0-.71-2.55,2.84,2.84,0,0,0-2.16-.75,3.83,3.83,0,0,0-1.94.46,3.33,3.33,0,0,0-1.26,1.29V50.8H189V37.22Z" fill="#999"/></svg>