<svg id="0d71aa2b-77ac-4d13-85a4-f14e30c86cf4" data-name="Layer 1" xmlns="http://www.w3.org/2000/svg" xmlns:xlink="http://www.w3.org/1999/xlink" viewBox="0 0 204 55"><defs><linearGradient id="45b95268-5d11-44aa-bf1b-b4653c82ee0e" x1="-12.37" y1="13.37" x2="210.8" y2="43.61" gradientUnits="userSpaceOnUse"><stop offset="0" stop-color="#3ff"/><stop offset="1" stop-color="#0cc"/></linearGradient><linearGradient id="502f8af5-941b-4515-b960-c46f3b8f3d58" x1="-12.43" y1="13.86" x2="210.74" y2="44.1" xlink:href="#45b95268-5d11-44aa-bf1b-b4653c82ee0e"/><linearGradient id="d05d54bb-b179-44fa-80ed-1d5b3f28dfb1" x1="-12.07" y1="11.17" x2="211.1" y2="41.4" xlink:href="#45b95268-5d11-44aa-bf1b-b4653c82ee0e"/><linearGradient id="36c05556-8b0e-4af6-bb68-21e424f3b720" x1="-11.67" y1="8.25" x2="211.5" y2="38.49" xlink:href="#45b95268-5d11-44aa-bf1b-b4653c82ee0e"/><linearGradient id="8f6998cb-8620-490b-a38d-2b78f0864830" x1="-11.25" y1="5.14" x2="211.92" y2="35.38" xlink:href="#45b95268-5d11-44aa-bf1b-b4653c82ee0e"/><linearGradient id="ef040322-14df-429b-b358-30d201c828a0" x1="-10.84" y1="2.11" x2="212.33" y2="32.34" xlink:href="#45b95268-5d11-44aa-bf1b-b4653c82ee0e"/><linearGradient id="8caf85e2-6aea-4150-9640-5dabab187c8e" x1="-10.55" y1="-0.06" x2="212.62" y2="30.18" xlink:href="#45b95268-5d11-44aa-bf1b-b4653c82ee0e"/><linearGradient id="f8505566-dfc1-4a09-8f4c-43b9bf4b1c75" x1="-9.69" y1="-6.37" x2="213.48" y2="23.86" xlink:href="#45b95268-5d11-44aa-bf1b-b4653c82ee0e"/><linearGradient id="1906be4b-ac27-46da-81e6-88a0e08f8461" x1="-9.75" y1="-5.92" x2="213.42" y2="24.32" xlink:href="#45b95268-5d11-44aa-bf1b-b4653c82ee0e"/></defs><title>logoZonnevelt</title><path d="M99,12.47A4,4,0,0,0,95.83,14a7.08,7.08,0,0,0-1.55,3.83l0,.09h9.18v-.3a5.93,5.93,0,0,0-1.09-3.67A3.94,3.94,0,0,0,99,12.47Z" fill="none"/><path d="M33.71,12.47a4.47,4.47,0,0,0-4,2.13,9.68,9.68,0,0,0-1.36,5.32v.41a9.66,9.66,0,0,0,1.36,5.34,4.52,4.52,0,0,0,4.05,2.11,4.5,4.5,0,0,0,4-2.11,9.6,9.6,0,0,0,1.37-5.34v-.41a9.58,9.58,0,0,0-1.38-5.32A4.53,4.53,0,0,0,33.71,12.47Z" fill="none"/><path d="M138.1,12.47a4,4,0,0,0-3.21,1.5,7.08,7.08,0,0,0-1.55,3.83l0,.09h9.18v-.3a5.93,5.93,0,0,0-1.09-3.67A3.94,3.94,0,0,0,138.1,12.47Z" fill="none"/><polygon points="20.84 5.55 20.84 2.89 2.18 2.89 2.18 5.81 16.61 5.81 1.97 27.54 1.97 30.29 21.46 30.29 21.46 27.39 6.15 27.39 20.84 5.55" fill="url(#45b95268-5d11-44aa-bf1b-b4653c82ee0e)"/><path d="M33.71,9.55a8.2,8.2,0,0,0-6.64,2.93,11.21,11.21,0,0,0-2.45,7.44v.41a11.13,11.13,0,0,0,2.46,7.44,8.27,8.27,0,0,0,6.67,2.91,8.26,8.26,0,0,0,6.66-2.9,11.15,11.15,0,0,0,2.45-7.45v-.41a11.17,11.17,0,0,0-2.46-7.45A8.28,8.28,0,0,0,33.71,9.55Zm5.44,10.78a9.6,9.6,0,0,1-1.37,5.34,4.5,4.5,0,0,1-4,2.11,4.52,4.52,0,0,1-4.05-2.11,9.66,9.66,0,0,1-1.36-5.34v-.41a9.68,9.68,0,0,1,1.36-5.32,4.47,4.47,0,0,1,4-2.13,4.53,4.53,0,0,1,4.05,2.13,9.58,9.58,0,0,1,1.38,5.32Z" fill="url(#502f8af5-941b-4515-b960-c46f3b8f3d58)"/><path d="M57,9.55a6.8,6.8,0,0,0-3.49.89A7.39,7.39,0,0,0,51,13l-.26-3H47.39V30.29H51.1V15.18A5,5,0,0,1,53,13.25a5.75,5.75,0,0,1,2.91-.69,4.26,4.26,0,0,1,3.25,1.13,5.51,5.51,0,0,1,1.06,3.82V30.29h3.71V17.44q0-4-1.81-6A6.64,6.64,0,0,0,57,9.55Z" fill="url(#d05d54bb-b179-44fa-80ed-1d5b3f28dfb1)"/><path d="M78.9,9.55a6.8,6.8,0,0,0-3.49.89A7.39,7.39,0,0,0,72.87,13l-.26-3H69.29V30.29H73V15.18a5,5,0,0,1,1.89-1.93,5.75,5.75,0,0,1,2.91-.69A4.26,4.26,0,0,1,81,13.69a5.51,5.51,0,0,1,1.06,3.82V30.29h3.71V17.44q0-4-1.81-6A6.64,6.64,0,0,0,78.9,9.55Z" fill="url(#36c05556-8b0e-4af6-bb68-21e424f3b720)"/><path d="M99,9.55a7.94,7.94,0,0,0-6.18,2.87,10.56,10.56,0,0,0-2.53,7.25v.83a10.79,10.79,0,0,0,2.46,7.38,8.61,8.61,0,0,0,6.84,2.8,11.47,11.47,0,0,0,4.31-.72,8.91,8.91,0,0,0,2.88-1.78l-1.45-2.41a7.37,7.37,0,0,1-2.44,1.48,9.32,9.32,0,0,1-3.3.54,4.73,4.73,0,0,1-4.14-1.91,8.41,8.41,0,0,1-1.35-5l.06-.09h13v-2a10.46,10.46,0,0,0-2-6.75A7.39,7.39,0,0,0,99,9.55Zm4.46,8.34H94.31l0-.09A7.08,7.08,0,0,1,95.83,14,4,4,0,0,1,99,12.47a3.94,3.94,0,0,1,3.37,1.45,5.93,5.93,0,0,1,1.09,3.67Z" fill="url(#8f6998cb-8620-490b-a38d-2b78f0864830)"/><polygon points="118.7 24.29 118.34 25.71 118.23 25.71 117.91 24.29 113.09 9.93 109.29 9.93 116.87 30.29 119.68 30.29 127.17 9.93 123.38 9.93 118.7 24.29" fill="url(#ef040322-14df-429b-b358-30d201c828a0)"/><path d="M138.1,9.55a7.94,7.94,0,0,0-6.18,2.87,10.56,10.56,0,0,0-2.53,7.25v.83a10.79,10.79,0,0,0,2.46,7.38,8.61,8.61,0,0,0,6.84,2.8A11.47,11.47,0,0,0,143,30a8.91,8.91,0,0,0,2.88-1.78l-1.45-2.41A7.37,7.37,0,0,1,142,27.25a9.32,9.32,0,0,1-3.3.54,4.73,4.73,0,0,1-4.14-1.91,8.41,8.41,0,0,1-1.35-5l.06-.09h13v-2a10.46,10.46,0,0,0-2-6.75A7.39,7.39,0,0,0,138.1,9.55Zm4.46,8.34h-9.18l0-.09A7.08,7.08,0,0,1,134.89,14a4,4,0,0,1,3.21-1.5,3.94,3.94,0,0,1,3.37,1.45,5.93,5.93,0,0,1,1.09,3.67Z" fill="url(#8caf85e2-6aea-4150-9640-5dabab187c8e)"/><rect x="150.72" y="0.94" width="3.71" height="29.35" fill="url(#f8505566-dfc1-4a09-8f4c-43b9bf4b1c75)"/><path d="M168.82,27.37a5.3,5.3,0,0,1-.66.18,3.44,3.44,0,0,1-.71.08,2.14,2.14,0,0,1-1.57-.58,2.77,2.77,0,0,1-.59-2V12.68h3.86V9.93h-3.86V5h-3.71V9.93h-3.24v2.75h3.24V25a5.92,5.92,0,0,0,1.34,4.28,4.8,4.8,0,0,0,3.59,1.36,6.17,6.17,0,0,0,1.6-.22,3.28,3.28,0,0,0,1.22-.56Z" fill="url(#1906be4b-ac27-46da-81e6-88a0e08f8461)"/><path d="M85.51,40a5,5,0,0,1,1.72-1.52,4.73,4.73,0,0,1,2.26-.55,4.38,4.38,0,0,1,3.38,1.3,5.74,5.74,0,0,1,1.21,4v8.5H91.61V43.21a3.63,3.63,0,0,0-.72-2.48,2.74,2.74,0,0,0-2.15-.8,4,4,0,0,0-1.92.43,3.49,3.49,0,0,0-1.32,1.21V51.74H83V32.17h2.47Z" fill="#999"/><path d="M106.25,49.73a4.6,4.6,0,0,1-1.64,1.68,4.5,4.5,0,0,1-2.32.59,4.36,4.36,0,0,1-3.46-1.42,6.58,6.58,0,0,1-1.24-4.42v-8h2.47v8a5.05,5.05,0,0,0,.64,3,2.38,2.38,0,0,0,2,.82,4.06,4.06,0,0,0,2.18-.53,3.34,3.34,0,0,0,1.3-1.51V38.16h2.47V51.74h-2.22Z" fill="#999"/><path d="M114.91,34.69h-2.47V32.17h2.47Zm0,17h-2.47V38.16h2.47Z" fill="#999"/><path d="M126.6,48.09a1.65,1.65,0,0,0-.62-1.33,6,6,0,0,0-2.35-.9,9.87,9.87,0,0,1-3.68-1.44,2.91,2.91,0,0,1-1.29-2.48,3.58,3.58,0,0,1,1.41-2.83,6.23,6.23,0,0,1,7.39.08,3.59,3.59,0,0,1,1.37,2.92l0,.08h-2.36a2.14,2.14,0,0,0-.77-1.59,2.76,2.76,0,0,0-2-.71,2.81,2.81,0,0,0-2,.59,1.84,1.84,0,0,0-.65,1.4,1.49,1.49,0,0,0,.56,1.24,6.18,6.18,0,0,0,2.3.8,9.73,9.73,0,0,1,3.79,1.49,3,3,0,0,1,1.29,2.52,3.57,3.57,0,0,1-1.46,2.95A6,6,0,0,1,123.79,52a6,6,0,0,1-4.09-1.32,3.76,3.76,0,0,1-1.42-3.07l0-.08h2.36a2.29,2.29,0,0,0,1,1.93,3.79,3.79,0,0,0,2.14.61,3.38,3.38,0,0,0,2.06-.56A1.71,1.71,0,0,0,126.6,48.09Z" fill="#999"/><path d="M140.48,51.74q-.13-.61-.19-1.08a8,8,0,0,1-.08-.95,5.76,5.76,0,0,1-1.8,1.64A4.6,4.6,0,0,1,136,52a4.44,4.44,0,0,1-3.23-1.08,4,4,0,0,1-1.11-3,3.51,3.51,0,0,1,1.57-3,7.35,7.35,0,0,1,4.27-1.1h2.68V42.44a2.49,2.49,0,0,0-.73-1.89,2.86,2.86,0,0,0-2.06-.7,3,3,0,0,0-1.94.6,1.81,1.81,0,0,0-.74,1.44l-2.35,0,0-.08a3.25,3.25,0,0,1,1.39-2.71,5.74,5.74,0,0,1,3.81-1.23,5.6,5.6,0,0,1,3.71,1.17,4.15,4.15,0,0,1,1.4,3.38V49a12.72,12.72,0,0,0,.08,1.4,7.22,7.22,0,0,0,.28,1.33Zm-4.1-1.81a4.4,4.4,0,0,0,2.42-.69,3.28,3.28,0,0,0,1.4-1.58V45.45h-2.77a3.6,3.6,0,0,0-2.39.75,2.25,2.25,0,0,0-.9,1.77,1.86,1.86,0,0,0,.56,1.43A2.36,2.36,0,0,0,136.38,49.93Z" fill="#999"/><path d="M152.69,40.35l-1.27-.08a2.83,2.83,0,0,0-1.65.46,3,3,0,0,0-1,1.3v9.7h-2.47V38.16h2.21l.24,2a4.71,4.71,0,0,1,1.42-1.64,3.33,3.33,0,0,1,2-.59,3.05,3.05,0,0,1,.53,0l.41.09Z" fill="#999"/><path d="M158.91,34.89v3.27h2.57V40h-2.57v8.24a1.85,1.85,0,0,0,.4,1.34,1.43,1.43,0,0,0,1,.39,2.3,2.3,0,0,0,.48-.06,3.54,3.54,0,0,0,.44-.12l.34,1.69a2.18,2.18,0,0,1-.82.37,4.11,4.11,0,0,1-1.07.14,3.2,3.2,0,0,1-2.4-.91,4,4,0,0,1-.89-2.85V40h-2.16V38.16h2.16V34.89Z" fill="#999"/><path d="M172,48.09a1.65,1.65,0,0,0-.62-1.33,6,6,0,0,0-2.35-.9,9.87,9.87,0,0,1-3.68-1.44,2.91,2.91,0,0,1-1.29-2.48,3.58,3.58,0,0,1,1.41-2.83,6.23,6.23,0,0,1,7.39.08,3.59,3.59,0,0,1,1.37,2.92l0,.08h-2.36a2.14,2.14,0,0,0-.77-1.59,2.76,2.76,0,0,0-2-.71,2.81,2.81,0,0,0-2,.59,1.84,1.84,0,0,0-.65,1.4,1.49,1.49,0,0,0,.56,1.24,6.18,6.18,0,0,0,2.3.8,9.73,9.73,0,0,1,3.79,1.49,3,3,0,0,1,1.29,2.52A3.57,3.57,0,0,1,173,50.86,6,6,0,0,1,169.21,52a6,6,0,0,1-4.09-1.32,3.76,3.76,0,0,1-1.42-3.07l0-.08h2.36a2.29,2.29,0,0,0,1,1.93,3.79,3.79,0,0,0,2.14.61,3.38,3.38,0,0,0,2.06-.56A1.71,1.71,0,0,0,172,48.09Z" fill="#999"/><path d="M183.18,52a5.74,5.74,0,0,1-4.56-1.87A7.19,7.19,0,0,1,177,45.21v-.55a7,7,0,0,1,1.69-4.84,5.29,5.29,0,0,1,4.12-1.91,4.92,4.92,0,0,1,4.08,1.69,7,7,0,0,1,1.36,4.5v1.3h-8.68l0,.06a5.61,5.61,0,0,0,.9,3.32,3.16,3.16,0,0,0,2.76,1.27,6.22,6.22,0,0,0,2.2-.36,4.91,4.91,0,0,0,1.62-1l1,1.61a5.94,5.94,0,0,1-1.92,1.19A7.65,7.65,0,0,1,183.18,52Zm-.39-12.14a2.69,2.69,0,0,0-2.14,1,4.72,4.72,0,0,0-1,2.55l0,.06h6.12v-.2a4,4,0,0,0-.73-2.45A2.63,2.63,0,0,0,182.79,39.86Z" fill="#999"/><path d="M193.22,38.16l.18,2a4.93,4.93,0,0,1,1.7-1.67,4.53,4.53,0,0,1,2.33-.6,4.43,4.43,0,0,1,3.4,1.29,5.64,5.64,0,0,1,1.2,4v8.57h-2.47V43.22a3.67,3.67,0,0,0-.71-2.55,2.84,2.84,0,0,0-2.16-.75,3.83,3.83,0,0,0-1.94.46,3.33,3.33,0,0,0-1.26,1.29V51.74H191V38.16Z" fill="#999"/></svg>